<svg width="269" height="42" viewBox="0 0 269 42" fill="none" xmlns="http://www.w3.org/2000/svg">
<path d="M70.4 29H72.49V23.83H76.22C76.3533 23.83 76.5233 23.8233 76.73 23.81C76.9433 23.7967 77.1433 23.7767 77.33 23.75C78.53 23.5567 79.43 23.0433 80.03 22.21C80.6367 21.3767 80.94 20.3767 80.94 19.21C80.94 18.0433 80.64 17.0433 80.04 16.21C79.44 15.3767 78.5367 14.8667 77.33 14.68C77.1433 14.6467 76.9467 14.6267 76.74 14.62C76.5333 14.6067 76.36 14.6 76.22 14.6H70.4V29ZM72.49 21.85V16.57H76.14C76.2733 16.57 76.42 16.5767 76.58 16.59C76.7467 16.6033 76.9033 16.63 77.05 16.67C77.69 16.8167 78.1433 17.1433 78.41 17.65C78.6767 18.1567 78.81 18.6767 78.81 19.21C78.81 19.7367 78.6767 20.2567 78.41 20.77C78.1433 21.2767 77.69 21.6067 77.05 21.76C76.9033 21.7933 76.7467 21.8167 76.58 21.83C76.42 21.8433 76.2733 21.85 76.14 21.85H72.49ZM87.5923 29.3C88.639 29.3 89.589 29.0367 90.4423 28.51C91.2957 27.9767 91.9323 27.2267 92.3523 26.26L90.3023 25.61C89.7557 26.7567 88.819 27.33 87.4923 27.33C86.5857 27.33 85.8723 27.0567 85.3523 26.51C84.8323 25.9633 84.529 25.19 84.4423 24.19H92.4923C92.5657 22.8967 92.4123 21.78 92.0323 20.84C91.6523 19.9 91.0757 19.1767 90.3023 18.67C89.529 18.1567 88.5923 17.9 87.4923 17.9C86.439 17.9 85.5157 18.1367 84.7223 18.61C83.929 19.0833 83.309 19.7533 82.8623 20.62C82.4223 21.4867 82.2023 22.51 82.2023 23.69C82.2023 24.8033 82.4257 25.7833 82.8723 26.63C83.3257 27.47 83.9557 28.1267 84.7623 28.6C85.5757 29.0667 86.519 29.3 87.5923 29.3ZM87.5723 19.75C89.2057 19.75 90.1323 20.6867 90.3523 22.56H84.4923C84.6257 21.6467 84.949 20.95 85.4623 20.47C85.9757 19.99 86.679 19.75 87.5723 19.75ZM94.7359 29H96.8459V23.55C96.8459 22.9167 96.9459 22.33 97.1459 21.79C97.3459 21.25 97.6993 20.8167 98.2059 20.49C98.5659 20.2567 98.9626 20.12 99.3959 20.08C99.8293 20.04 100.219 20.0667 100.566 20.16V18.2C100.079 18.1067 99.5626 18.11 99.0159 18.21C98.4759 18.31 98.0026 18.51 97.5959 18.81C97.1959 19.0767 96.8626 19.4467 96.5959 19.92V18.2H94.7359V29ZM106.21 29.29C107.576 29.29 108.646 28.9867 109.42 28.38C110.2 27.7733 110.59 26.9367 110.59 25.87C110.59 25.31 110.473 24.8367 110.24 24.45C110.013 24.0633 109.633 23.73 109.1 23.45C108.566 23.1633 107.846 22.9033 106.94 22.67C106.093 22.4567 105.453 22.2733 105.02 22.12C104.593 21.96 104.303 21.8 104.15 21.64C103.996 21.4733 103.92 21.27 103.92 21.03C103.92 20.6167 104.116 20.2933 104.51 20.06C104.903 19.82 105.416 19.7133 106.05 19.74C106.71 19.7667 107.246 19.9333 107.66 20.24C108.073 20.54 108.316 20.9467 108.39 21.46L110.53 21.07C110.41 20.11 109.94 19.3433 109.12 18.77C108.3 18.19 107.27 17.9 106.03 17.9C104.763 17.9 103.746 18.1967 102.98 18.79C102.213 19.3767 101.83 20.16 101.83 21.14C101.83 21.6667 101.943 22.1167 102.17 22.49C102.403 22.8567 102.79 23.1767 103.33 23.45C103.876 23.7233 104.613 23.9833 105.54 24.23C106.386 24.4567 107.016 24.6467 107.43 24.8C107.843 24.9533 108.113 25.1167 108.24 25.29C108.373 25.4567 108.44 25.6767 108.44 25.95C108.44 26.4167 108.253 26.7833 107.88 27.05C107.513 27.3167 107.003 27.45 106.35 27.45C105.63 27.45 105.026 27.29 104.54 26.97C104.06 26.65 103.753 26.2067 103.62 25.64L101.48 25.97C101.666 27.0233 102.173 27.84 103 28.42C103.826 29 104.896 29.29 106.21 29.29ZM117.492 29.3C118.566 29.3 119.499 29.06 120.292 28.58C121.086 28.0933 121.699 27.4233 122.132 26.57C122.572 25.71 122.792 24.7167 122.792 23.59C122.792 22.4767 122.576 21.4933 122.142 20.64C121.709 19.78 121.096 19.11 120.302 18.63C119.509 18.1433 118.572 17.9 117.492 17.9C116.432 17.9 115.506 18.14 114.712 18.62C113.919 19.1 113.302 19.7667 112.862 20.62C112.422 21.4733 112.202 22.4633 112.202 23.59C112.202 24.7033 112.419 25.69 112.852 26.55C113.286 27.41 113.896 28.0833 114.682 28.57C115.476 29.0567 116.412 29.3 117.492 29.3ZM117.492 27.33C116.486 27.33 115.722 26.9933 115.202 26.32C114.682 25.64 114.422 24.73 114.422 23.59C114.422 22.49 114.672 21.5967 115.172 20.91C115.672 20.2167 116.446 19.87 117.492 19.87C118.512 19.87 119.279 20.2067 119.792 20.88C120.312 21.5533 120.572 22.4567 120.572 23.59C120.572 24.6967 120.316 25.5967 119.802 26.29C119.296 26.9833 118.526 27.33 117.492 27.33ZM124.98 29H127.1V23.38C127.1 22.5267 127.223 21.8467 127.47 21.34C127.723 20.8267 128.057 20.4567 128.47 20.23C128.883 20.0033 129.34 19.89 129.84 19.89C130.413 19.89 130.88 20.0067 131.24 20.24C131.6 20.4733 131.877 20.78 132.07 21.16C132.263 21.54 132.393 21.9533 132.46 22.4C132.533 22.84 132.57 23.27 132.57 23.69V29H134.69V23C134.69 22.6667 134.66 22.28 134.6 21.84C134.54 21.4 134.427 20.95 134.26 20.49C134.093 20.03 133.85 19.6067 133.53 19.22C133.217 18.8267 132.807 18.51 132.3 18.27C131.793 18.03 131.167 17.91 130.42 17.91C129.64 17.91 128.947 18.05 128.34 18.33C127.74 18.61 127.243 18.9967 126.85 19.49V18.2H124.98V29ZM140.345 29.3C142.065 29.3 143.361 28.6767 144.235 27.43V29H146.085V22.35C146.085 21.8967 146.065 21.4733 146.025 21.08C145.985 20.6867 145.878 20.3133 145.705 19.96C145.371 19.2467 144.845 18.7267 144.125 18.4C143.411 18.0667 142.571 17.9 141.605 17.9C140.358 17.9 139.358 18.1733 138.605 18.72C137.851 19.2667 137.345 20.0033 137.085 20.93L139.035 21.53C139.221 20.93 139.551 20.4967 140.025 20.23C140.498 19.9633 141.018 19.83 141.585 19.83C142.425 19.83 143.031 20.01 143.405 20.37C143.785 20.7233 143.991 21.2733 144.025 22.02C143.145 22.14 142.285 22.2667 141.445 22.4C140.605 22.5267 139.871 22.68 139.245 22.86C138.411 23.1267 137.778 23.5233 137.345 24.05C136.911 24.5767 136.695 25.2467 136.695 26.06C136.695 26.6467 136.831 27.1867 137.105 27.68C137.385 28.1667 137.795 28.56 138.335 28.86C138.881 29.1533 139.551 29.3 140.345 29.3ZM140.715 27.59C140.048 27.59 139.555 27.4367 139.235 27.13C138.921 26.8233 138.765 26.46 138.765 26.04C138.765 25.6133 138.905 25.2767 139.185 25.03C139.471 24.7833 139.828 24.5867 140.255 24.44C140.708 24.3067 141.241 24.19 141.855 24.09C142.475 23.99 143.191 23.88 144.005 23.76C143.998 24.0133 143.981 24.2967 143.955 24.61C143.928 24.9233 143.871 25.2033 143.785 25.45C143.705 25.8033 143.535 26.1433 143.275 26.47C143.021 26.7967 142.678 27.0667 142.245 27.28C141.818 27.4867 141.308 27.59 140.715 27.59ZM148.881 29H150.971V14.3H148.881V29ZM158.178 29H160.268V14.6H158.178V29ZM163.261 29H165.381V23.38C165.381 22.5267 165.504 21.8467 165.751 21.34C166.004 20.8267 166.338 20.4567 166.751 20.23C167.164 20.0033 167.621 19.89 168.121 19.89C168.694 19.89 169.161 20.0067 169.521 20.24C169.881 20.4733 170.158 20.78 170.351 21.16C170.544 21.54 170.674 21.9533 170.741 22.4C170.814 22.84 170.851 23.27 170.851 23.69V29H172.971V23C172.971 22.6667 172.941 22.28 172.881 21.84C172.821 21.4 172.708 20.95 172.541 20.49C172.374 20.03 172.131 19.6067 171.811 19.22C171.498 18.8267 171.088 18.51 170.581 18.27C170.074 18.03 169.448 17.91 168.701 17.91C167.921 17.91 167.228 18.05 166.621 18.33C166.021 18.61 165.524 18.9967 165.131 19.49V18.2H163.261V29ZM176.566 29H178.656V19.88H181.386V18.2H178.656V17.42C178.656 16.4867 179.146 16.02 180.126 16.02H181.386V14.3H180.026C179.759 14.3 179.462 14.3133 179.136 14.34C178.809 14.36 178.482 14.43 178.156 14.55C177.836 14.67 177.536 14.8833 177.256 15.19C176.909 15.57 176.706 16 176.646 16.48C176.592 16.96 176.566 17.4067 176.566 17.82V18.2H174.776V19.88H176.566V29ZM187.278 29.3C188.351 29.3 189.284 29.06 190.078 28.58C190.871 28.0933 191.484 27.4233 191.918 26.57C192.358 25.71 192.578 24.7167 192.578 23.59C192.578 22.4767 192.361 21.4933 191.928 20.64C191.494 19.78 190.881 19.11 190.088 18.63C189.294 18.1433 188.358 17.9 187.278 17.9C186.218 17.9 185.291 18.14 184.498 18.62C183.704 19.1 183.088 19.7667 182.648 20.62C182.208 21.4733 181.988 22.4633 181.988 23.59C181.988 24.7033 182.204 25.69 182.638 26.55C183.071 27.41 183.681 28.0833 184.468 28.57C185.261 29.0567 186.198 29.3 187.278 29.3ZM187.278 27.33C186.271 27.33 185.508 26.9933 184.988 26.32C184.468 25.64 184.208 24.73 184.208 23.59C184.208 22.49 184.458 21.5967 184.958 20.91C185.458 20.2167 186.231 19.87 187.278 19.87C188.298 19.87 189.064 20.2067 189.578 20.88C190.098 21.5533 190.358 22.4567 190.358 23.59C190.358 24.6967 190.101 25.5967 189.588 26.29C189.081 26.9833 188.311 27.33 187.278 27.33ZM194.775 29H196.885V23.55C196.885 22.9167 196.985 22.33 197.185 21.79C197.385 21.25 197.738 20.8167 198.245 20.49C198.605 20.2567 199.002 20.12 199.435 20.08C199.868 20.04 200.258 20.0667 200.605 20.16V18.2C200.118 18.1067 199.602 18.11 199.055 18.21C198.515 18.31 198.042 18.51 197.635 18.81C197.235 19.0767 196.902 19.4467 196.635 19.92V18.2H194.775V29ZM202.499 29H204.599V22.25C204.599 21.5167 204.799 20.9233 205.199 20.47C205.606 20.0167 206.139 19.79 206.799 19.79C207.466 19.79 207.996 20.0167 208.389 20.47C208.789 20.9167 208.989 21.53 208.989 22.31L208.979 29H211.069L211.079 22.25C211.079 21.4367 211.296 20.8233 211.729 20.41C212.169 19.9967 212.686 19.79 213.279 19.79C213.933 19.79 214.459 20.01 214.859 20.45C215.259 20.89 215.459 21.4967 215.459 22.27L215.449 29H217.539L217.549 21.77C217.549 20.61 217.226 19.68 216.579 18.98C215.939 18.28 215.039 17.93 213.879 17.93C213.173 17.93 212.533 18.0867 211.959 18.4C211.386 18.7067 210.933 19.1333 210.599 19.68C210.313 19.1333 209.903 18.7067 209.369 18.4C208.843 18.0867 208.206 17.93 207.459 17.93C206.813 17.93 206.219 18.06 205.679 18.32C205.146 18.5733 204.706 18.92 204.359 19.36V18.2H202.499V29ZM223.196 29.3C224.916 29.3 226.213 28.6767 227.086 27.43V29H228.936V22.35C228.936 21.8967 228.916 21.4733 228.876 21.08C228.836 20.6867 228.729 20.3133 228.556 19.96C228.223 19.2467 227.696 18.7267 226.976 18.4C226.263 18.0667 225.423 17.9 224.456 17.9C223.209 17.9 222.209 18.1733 221.456 18.72C220.703 19.2667 220.196 20.0033 219.936 20.93L221.886 21.53C222.073 20.93 222.403 20.4967 222.876 20.23C223.349 19.9633 223.869 19.83 224.436 19.83C225.276 19.83 225.883 20.01 226.256 20.37C226.636 20.7233 226.843 21.2733 226.876 22.02C225.996 22.14 225.136 22.2667 224.296 22.4C223.456 22.5267 222.723 22.68 222.096 22.86C221.263 23.1267 220.629 23.5233 220.196 24.05C219.763 24.5767 219.546 25.2467 219.546 26.06C219.546 26.6467 219.683 27.1867 219.956 27.68C220.236 28.1667 220.646 28.56 221.186 28.86C221.733 29.1533 222.403 29.3 223.196 29.3ZM223.566 27.59C222.899 27.59 222.406 27.4367 222.086 27.13C221.773 26.8233 221.616 26.46 221.616 26.04C221.616 25.6133 221.756 25.2767 222.036 25.03C222.323 24.7833 222.679 24.5867 223.106 24.44C223.559 24.3067 224.093 24.19 224.706 24.09C225.326 23.99 226.043 23.88 226.856 23.76C226.849 24.0133 226.833 24.2967 226.806 24.61C226.779 24.9233 226.723 25.2033 226.636 25.45C226.556 25.8033 226.386 26.1433 226.126 26.47C225.873 26.7967 225.529 27.0667 225.096 27.28C224.669 27.4867 224.159 27.59 223.566 27.59ZM237.713 29V27.23C237.006 27.3367 236.389 27.36 235.863 27.3C235.343 27.2333 234.963 26.9967 234.723 26.59C234.596 26.37 234.526 26.1 234.513 25.78C234.506 25.46 234.503 25.0833 234.503 24.65V19.88H237.713V18.2H234.503V15.2H232.403V18.2H230.333V19.88H232.403V24.75C232.403 25.3367 232.409 25.8633 232.423 26.33C232.443 26.79 232.569 27.2433 232.803 27.69C233.069 28.19 233.459 28.5567 233.973 28.79C234.486 29.0233 235.069 29.15 235.723 29.17C236.376 29.19 237.039 29.1333 237.713 29ZM240.19 16.43H242.28V14.4H240.19V16.43ZM240.19 29H242.28V18.2H240.19V29ZM249.973 29.3C251.046 29.3 251.979 29.06 252.773 28.58C253.566 28.0933 254.179 27.4233 254.613 26.57C255.053 25.71 255.273 24.7167 255.273 23.59C255.273 22.4767 255.056 21.4933 254.623 20.64C254.189 19.78 253.576 19.11 252.783 18.63C251.989 18.1433 251.053 17.9 249.973 17.9C248.913 17.9 247.986 18.14 247.193 18.62C246.399 19.1 245.783 19.7667 245.343 20.62C244.903 21.4733 244.683 22.4633 244.683 23.59C244.683 24.7033 244.899 25.69 245.333 26.55C245.766 27.41 246.376 28.0833 247.163 28.57C247.956 29.0567 248.893 29.3 249.973 29.3ZM249.973 27.33C248.966 27.33 248.203 26.9933 247.683 26.32C247.163 25.64 246.903 24.73 246.903 23.59C246.903 22.49 247.153 21.5967 247.653 20.91C248.153 20.2167 248.926 19.87 249.973 19.87C250.993 19.87 251.759 20.2067 252.273 20.88C252.793 21.5533 253.053 22.4567 253.053 23.59C253.053 24.6967 252.796 25.5967 252.283 26.29C251.776 26.9833 251.006 27.33 249.973 27.33ZM257.46 29H259.58V23.38C259.58 22.5267 259.704 21.8467 259.95 21.34C260.204 20.8267 260.537 20.4567 260.95 20.23C261.364 20.0033 261.82 19.89 262.32 19.89C262.894 19.89 263.36 20.0067 263.72 20.24C264.08 20.4733 264.357 20.78 264.55 21.16C264.744 21.54 264.874 21.9533 264.94 22.4C265.014 22.84 265.05 23.27 265.05 23.69V29H267.17V23C267.17 22.6667 267.14 22.28 267.08 21.84C267.02 21.4 266.907 20.95 266.74 20.49C266.574 20.03 266.33 19.6067 266.01 19.22C265.697 18.8267 265.287 18.51 264.78 18.27C264.274 18.03 263.647 17.91 262.9 17.91C262.12 17.91 261.427 18.05 260.82 18.33C260.22 18.61 259.724 18.9967 259.33 19.49V18.2H257.46V29Z" fill="white"/>
<circle cx="21" cy="21" r="21" fill="#FCAF58"/>
<path d="M20.29 29H22.996V13.16H20.29L17.32 14.942V17.868L20.29 16.053V29Z" fill="#3D348B"/>
</svg>
