<svg width="18" height="26" viewBox="0 0 18 26" fill="none" xmlns="http://www.w3.org/2000/svg">
<path fill-rule="evenodd" clip-rule="evenodd" d="M11.7473 6.83046C10.4177 6.23804 8.93223 6.09127 7.51243 6.41206C6.09263 6.73284 4.81456 7.50399 3.86884 8.61048C2.92312 9.71698 2.36041 11.0995 2.26463 12.552C2.16886 14.0044 2.54516 15.4489 3.3374 16.67C4.12964 17.8911 5.29539 18.8234 6.66077 19.3278C8.02615 19.8322 9.51802 19.8818 10.9139 19.4691C12.3097 19.0564 13.5348 18.2035 14.4063 17.0377C15.2778 15.8719 15.7492 14.4555 15.75 13V12.3104C15.75 11.8962 16.0858 11.5604 16.5 11.5604C16.9142 11.5604 17.25 11.8962 17.25 12.3104V13.0004C17.249 14.7794 16.6729 16.5109 15.6077 17.9358C14.5425 19.3607 13.0452 20.4031 11.3392 20.9075C9.63313 21.412 7.80974 21.3514 6.14094 20.7348C4.47214 20.1183 3.04734 18.9788 2.07904 17.4864C1.11074 15.9939 0.650828 14.2285 0.767883 12.4533C0.884939 10.6781 1.5727 8.98828 2.72858 7.6359C3.88447 6.28352 5.44655 5.34101 7.18186 4.94894C8.91716 4.55687 10.7327 4.73624 12.3578 5.46032C12.7361 5.6289 12.9062 6.07228 12.7376 6.45064C12.569 6.82899 12.1256 6.99904 11.7473 6.83046Z" fill="white"/>
<path fill-rule="evenodd" clip-rule="evenodd" d="M17.0301 6.46979C17.3231 6.76254 17.3233 7.23741 17.0306 7.53045L9.5306 15.038C9.38997 15.1787 9.19917 15.2578 9.00019 15.2579C8.80122 15.2579 8.61037 15.1789 8.46967 15.0382L6.21967 12.7882C5.92678 12.4953 5.92678 12.0205 6.21967 11.7276C6.51257 11.4347 6.98744 11.4347 7.28033 11.7276L8.99974 13.447L15.9694 6.47032C16.2622 6.17728 16.737 6.17705 17.0301 6.46979Z" fill="white"/>
</svg>
