<svg width="24" height="24" viewBox="0 0 24 24" fill="none" xmlns="http://www.w3.org/2000/svg">
<path opacity="0.1" fill-rule="evenodd" clip-rule="evenodd" d="M0 12C0 5.37258 5.37258 0 12 0C18.6274 0 24 5.37258 24 12C24 18.6274 18.6274 24 12 24C5.37258 24 0 18.6274 0 12Z" fill="white"/>
<path fill-rule="evenodd" clip-rule="evenodd" d="M12.0022 5.59961C10.264 5.59961 10.0459 5.60721 9.3632 5.63828C8.68186 5.66948 8.21679 5.77734 7.80985 5.93561C7.38891 6.09908 7.03184 6.31775 6.67611 6.67362C6.3201 7.02936 6.10143 7.38643 5.93743 7.80723C5.77876 8.2143 5.67076 8.67951 5.6401 9.36058C5.60956 10.0433 5.60156 10.2615 5.60156 11.9997C5.60156 13.7378 5.6093 13.9553 5.64023 14.638C5.67156 15.3193 5.77943 15.7844 5.93757 16.1913C6.10117 16.6123 6.31984 16.9693 6.67571 17.3251C7.03131 17.6811 7.38838 17.9003 7.80905 18.0637C8.21626 18.222 8.68146 18.3299 9.36267 18.3611C10.0453 18.3921 10.2633 18.3997 12.0014 18.3997C13.7396 18.3997 13.9571 18.3921 14.6398 18.3611C15.3211 18.3299 15.7867 18.222 16.1939 18.0637C16.6147 17.9003 16.9713 17.6811 17.3269 17.3251C17.6829 16.9693 17.9016 16.6123 18.0656 16.1915C18.2229 15.7844 18.3309 15.3192 18.3629 14.6381C18.3936 13.9554 18.4016 13.7378 18.4016 11.9997C18.4016 10.2615 18.3936 10.0434 18.3629 9.36071C18.3309 8.67937 18.2229 8.2143 18.0656 7.80737C17.9016 7.38643 17.6829 7.02936 17.3269 6.67362C16.9709 6.31762 16.6149 6.09895 16.1935 5.93561C15.7855 5.77734 15.3202 5.66948 14.6389 5.63828C13.9562 5.60721 13.7388 5.59961 12.0002 5.59961H12.0022ZM11.428 6.75294C11.5984 6.75267 11.7885 6.75294 12.0021 6.75294C13.711 6.75294 13.9135 6.75907 14.5883 6.78974C15.2123 6.81827 15.551 6.92254 15.7766 7.01014C16.0752 7.12614 16.2882 7.26481 16.512 7.48881C16.7361 7.71281 16.8747 7.92615 16.991 8.22482C17.0786 8.45015 17.183 8.78882 17.2114 9.41283C17.2421 10.0875 17.2487 10.2902 17.2487 11.9982C17.2487 13.7062 17.2421 13.9089 17.2114 14.5836C17.1829 15.2076 17.0786 15.5462 16.991 15.7716C16.875 16.0702 16.7361 16.2829 16.512 16.5068C16.288 16.7308 16.0754 16.8694 15.7766 16.9854C15.5512 17.0734 15.2123 17.1774 14.5883 17.206C13.9136 17.2366 13.711 17.2433 12.0021 17.2433C10.2932 17.2433 10.0906 17.2366 9.41597 17.206C8.79197 17.1772 8.4533 17.0729 8.22756 16.9853C7.92889 16.8693 7.71556 16.7306 7.49155 16.5066C7.26755 16.2826 7.12888 16.0698 7.01262 15.771C6.92502 15.5457 6.82061 15.207 6.79221 14.583C6.76155 13.9083 6.75541 13.7057 6.75541 11.9966C6.75541 10.2875 6.76155 10.0859 6.79221 9.41123C6.82075 8.78722 6.92502 8.44855 7.01262 8.22295C7.12862 7.92428 7.26755 7.71095 7.49155 7.48694C7.71556 7.26294 7.92889 7.12427 8.22756 7.00801C8.45316 6.92001 8.79197 6.816 9.41597 6.78734C10.0064 6.76067 10.2352 6.75267 11.428 6.75134V6.75294ZM15.4184 7.81562C14.9944 7.81562 14.6504 8.15922 14.6504 8.58336C14.6504 9.00736 14.9944 9.35137 15.4184 9.35137C15.8424 9.35137 16.1864 9.00736 16.1864 8.58336C16.1864 8.15935 15.8424 7.81562 15.4184 7.81562ZM12.0022 8.71296C10.1871 8.71296 8.71547 10.1846 8.71547 11.9997C8.71547 13.8147 10.1871 15.2857 12.0022 15.2857C13.8173 15.2857 15.2883 13.8147 15.2883 11.9997C15.2883 10.1846 13.8173 8.71296 12.0022 8.71296ZM12.0021 9.8663C13.1803 9.8663 14.1355 10.8214 14.1355 11.9997C14.1355 13.1778 13.1803 14.133 12.0021 14.133C10.8239 14.133 9.86879 13.1778 9.86879 11.9997C9.86879 10.8214 10.8239 9.8663 12.0021 9.8663Z" fill="white"/>
</svg>
