<svg width="170" height="38" viewBox="0 0 170 38" fill="none" xmlns="http://www.w3.org/2000/svg">
<path fill-rule="evenodd" clip-rule="evenodd" d="M0 20.6781C0.556713 23.4482 1.71831 25.7983 3.4848 27.7284C6.06418 30.5466 9.55114 31.9557 13.9456 31.9557C16.525 31.9557 18.8298 31.287 20.8598 29.9495C22.8899 28.6121 24.4781 26.785 25.6245 24.4683C26.7948 27.191 28.5144 29.3285 30.7833 30.881C33.0522 32.4095 35.5957 33.1738 38.414 33.1738C42.904 33.1738 46.4984 31.6691 49.1972 28.6598C51.1009 26.5013 52.3271 23.8406 52.876 20.6781H47.1953C46.7716 21.9411 46.1254 23.0254 45.2565 23.931C43.5608 25.6744 41.2322 26.5462 38.2706 26.5462C35.3092 26.5462 32.9208 25.6505 31.1057 23.8593C30.1932 22.9468 29.5101 21.8864 29.0563 20.6781H22.1141C21.7189 21.532 21.1814 22.2939 20.5015 22.9637C18.8536 24.54 16.7041 25.3281 14.0531 25.3281C11.2827 25.3281 9.09735 24.5281 7.49717 22.9279C6.82988 22.2606 6.29972 21.5107 5.90659 20.6781H0ZM21.9191 12.1183C21.548 11.4271 21.0755 10.8029 20.5015 10.2459C18.8536 8.6457 16.7041 7.84561 14.0531 7.84561C11.4021 7.84561 9.24066 8.66961 7.56883 10.3175C7.00994 10.8684 6.54447 11.4687 6.17243 12.1183H0.0847891C0.670191 9.53053 1.80352 7.31815 3.4848 5.48119C6.06418 2.6391 9.55114 1.21804 13.9456 1.21804C16.5489 1.21804 18.8656 1.91066 20.8957 3.29588C22.9257 4.65723 24.5139 6.50815 25.6603 8.84875C26.8306 6.12602 28.5383 3.97656 30.7833 2.40026C33.0283 0.800085 35.5719 0 38.414 0C42.9279 0 46.5223 1.52852 49.1972 4.58557C51.0168 6.6489 52.2176 9.15984 52.7994 12.1183H47.0492C46.6284 11.0323 46.0309 10.0858 45.2565 9.27864C43.5369 7.51129 41.2083 6.62756 38.2706 6.62756C35.3569 6.62756 32.9805 7.55904 31.1415 9.42195C30.3492 10.2143 29.7275 11.1131 29.2765 12.1183H21.9191Z" fill="url(#paint0_linear)"/>
<path d="M67.4537 29.3831C69.818 29.3831 71.662 28.7208 72.987 27.396C74.3217 26.0611 74.9893 24.1963 74.9893 21.8016V3.67334H71.8864V20.9304C71.8864 22.6627 71.4633 24.0129 70.6178 24.981C69.7722 25.9389 68.5897 26.4178 67.0716 26.4178C65.4923 26.4178 64.0451 25.7605 62.7306 24.446L61.5842 27.0292C63.2246 28.5985 65.1811 29.3831 67.4537 29.3831ZM88.4954 29.3831C91.0229 29.3831 92.8315 28.8431 93.9216 27.7629C95.0124 26.6726 95.5572 24.8638 95.5572 22.3366V13.2419H92.5918V21.7252C92.5918 23.6002 92.2812 24.9351 91.6594 25.7299C91.0382 26.5248 89.9836 26.9222 88.4954 26.9222C87.0182 26.9222 85.9684 26.5248 85.3466 25.7299C84.7254 24.9351 84.4142 23.6002 84.4142 21.7252V13.2419H81.4489V22.3366C81.4489 24.8638 81.9943 26.6726 83.0844 27.7629C84.1752 28.8431 85.9788 29.3831 88.4954 29.3831ZM101.504 28.894H104.469V18.607C104.469 18.0262 104.652 17.4708 105.019 16.9409C105.396 16.411 105.9 15.983 106.533 15.657C107.175 15.3207 107.887 15.1526 108.673 15.1526C109.793 15.1526 110.69 15.5194 111.363 16.2531C112.035 16.9868 112.372 17.9701 112.372 19.2031V28.894H115.337V18.714C115.337 18.1128 115.515 17.5421 115.872 17.0021C116.239 16.4518 116.733 16.0085 117.355 15.6723C117.986 15.3258 118.694 15.1526 119.479 15.1526C120.61 15.1526 121.517 15.5347 122.2 16.2989C122.882 17.0632 123.224 18.0975 123.224 19.4019V28.894H126.189V18.5764C126.189 16.732 125.644 15.3003 124.554 14.2813C123.463 13.2623 122.083 12.7528 120.412 12.7528C119.178 12.7528 118.104 13.0381 117.186 13.6087C116.269 14.1794 115.484 14.9641 114.832 15.9627C114.455 14.9742 113.788 14.1947 112.83 13.624C111.872 13.0432 110.761 12.7528 109.498 12.7528C107.48 12.7528 105.804 13.5884 104.469 15.2596V13.2419H101.504V28.894ZM139.286 37.3009C142.057 37.3009 144.197 36.5978 145.706 35.1915C147.214 33.7853 147.968 31.8288 147.968 29.322V13.2419H145.002V16.1002C144.381 15.0506 143.53 14.2304 142.45 13.6393C141.369 13.0483 140.177 12.7528 138.873 12.7528C137.375 12.7528 136.035 13.1145 134.853 13.838C133.681 14.5615 132.754 15.55 132.071 16.8034C131.388 18.0465 131.047 19.4681 131.047 21.0679C131.047 22.678 131.394 24.1097 132.086 25.3631C132.779 26.6165 133.712 27.5998 134.884 28.3132C136.056 29.0265 137.365 29.3831 138.812 29.3831C140.116 29.3831 141.308 29.0825 142.389 28.4813C143.469 27.8699 144.34 27.0292 145.002 25.9592V29.3067C145.002 30.4378 144.753 31.411 144.254 32.2262C143.764 33.0414 143.087 33.6681 142.221 34.1063C141.365 34.5445 140.386 34.7635 139.286 34.7635C138.002 34.7635 136.845 34.4731 135.816 33.8923C134.787 33.3216 134.038 32.5522 133.569 31.5842L131.108 32.7459C132.464 35.7826 135.189 37.3009 139.286 37.3009ZM139.607 26.8305C138.547 26.8305 137.604 26.5859 136.779 26.0968C135.954 25.5975 135.307 24.9148 134.838 24.0486C134.369 23.1824 134.135 22.194 134.135 21.0832C134.135 19.9623 134.369 18.9688 134.838 18.1026C135.317 17.2263 135.969 16.5435 136.794 16.0544C137.62 15.555 138.563 15.3054 139.622 15.3054C140.682 15.3054 141.624 15.555 142.45 16.0544C143.275 16.5435 143.922 17.2263 144.391 18.1026C144.87 18.9688 145.109 19.9623 145.109 21.0832C145.109 22.194 144.875 23.1824 144.406 24.0486C143.937 24.9148 143.286 25.5975 142.45 26.0968C141.624 26.5859 140.677 26.8305 139.607 26.8305ZM160.859 29.3831C162.154 29.3831 163.336 29.0825 164.406 28.4813C165.476 27.8801 166.352 27.0394 167.035 25.9592V28.894H170V13.2419H167.035V16.1002C166.434 15.0506 165.583 14.2304 164.482 13.6393C163.392 13.0483 162.184 12.7528 160.859 12.7528C159.361 12.7528 158.027 13.1145 156.855 13.838C155.683 14.5615 154.761 15.55 154.088 16.8034C153.415 18.0465 153.079 19.463 153.079 21.0527C153.079 22.6627 153.42 24.0944 154.103 25.3478C154.796 26.6012 155.728 27.5897 156.901 28.3132C158.082 29.0265 159.402 29.3831 160.859 29.3831ZM161.654 26.8305C160.595 26.8305 159.652 26.5859 158.826 26.0968C158.001 25.5975 157.349 24.9148 156.87 24.0486C156.401 23.1722 156.167 22.1787 156.167 21.0679C156.167 19.947 156.401 18.9535 156.87 18.0873C157.349 17.2211 158.001 16.5435 158.826 16.0544C159.652 15.555 160.595 15.3054 161.654 15.3054C162.724 15.3054 163.667 15.555 164.482 16.0544C165.307 16.5435 165.954 17.2211 166.423 18.0873C166.892 18.9535 167.126 19.947 167.126 21.0679C167.126 22.1888 166.892 23.1824 166.423 24.0486C165.954 24.9148 165.307 25.5975 164.482 26.0968C163.667 26.5859 162.724 26.8305 161.654 26.8305Z" fill="#3D348B"/>
<defs>
<linearGradient id="paint0_linear" x1="0" y1="16.5869" x2="62.9752" y2="16.5081" gradientUnits="userSpaceOnUse">
<stop offset="0.282575" stop-color="#100A4A"/>
<stop offset="0.837484" stop-color="#3D348B"/>
</linearGradient>
</defs>
</svg>
