<svg width="87" height="55" viewBox="0 0 87 55" fill="none" xmlns="http://www.w3.org/2000/svg">
<path fill-rule="evenodd" clip-rule="evenodd" d="M0 33.8203C0.91054 38.3511 2.81041 42.1948 5.69961 45.3516C9.91836 49.9609 15.6215 52.2656 22.809 52.2656C27.0277 52.2656 30.7973 51.1719 34.1176 48.9844C37.4379 46.7969 40.0355 43.8086 41.9105 40.0195C43.8246 44.4727 46.6371 47.9687 50.348 50.5078C54.059 53.0078 58.2191 54.2578 62.8285 54.2578C70.1723 54.2578 76.0512 51.7969 80.4652 46.875C83.5788 43.3445 85.5844 38.9929 86.4821 33.8203H77.191C76.498 35.886 75.441 37.6595 74.0199 39.1406C71.2465 41.9922 67.4379 43.418 62.5941 43.418C57.7504 43.418 53.8441 41.9531 50.8754 39.0234C49.3829 37.5309 48.2656 35.7966 47.5234 33.8203L36.1691 33.8203C35.5227 35.217 34.6435 36.4631 33.5316 37.5586C30.8363 40.1367 27.3207 41.4258 22.9848 41.4258C18.4535 41.4258 14.8793 40.1172 12.2621 37.5C11.1707 36.4086 10.3036 35.1821 9.6606 33.8203H0ZM35.8501 19.8203C35.2431 18.6897 34.4703 17.6689 33.5316 16.7578C30.8363 14.1406 27.3207 12.832 22.9848 12.832C18.6488 12.832 15.1137 14.1797 12.3793 16.875C11.4652 17.776 10.7039 18.7578 10.0954 19.8203H0.138678C1.09614 15.5878 2.94978 11.9693 5.69961 8.96484C9.91836 4.31641 15.6215 1.99219 22.809 1.99219C27.0668 1.99219 30.8559 3.125 34.1762 5.39062C37.4965 7.61719 40.0941 10.6445 41.9691 14.4727C43.8832 10.0195 46.6762 6.50391 50.348 3.92578C54.0199 1.30859 58.1801 0 62.8285 0C70.2113 0 76.0902 2.5 80.4652 7.5C83.4413 10.8747 85.4052 14.9815 86.3568 19.8203H76.952C76.2638 18.044 75.2865 16.4959 74.0199 15.1758C71.2074 12.2852 67.3988 10.8398 62.5941 10.8398C57.8285 10.8398 53.9418 12.3633 50.934 15.4102C49.638 16.7062 48.6212 18.1762 47.8836 19.8203H35.8501Z" fill="black"/>
</svg>
