<svg width="20" height="20" viewBox="0 0 20 20" fill="none" xmlns="http://www.w3.org/2000/svg">
<path d="M13.2254 13.5084L11.0124 18.1584C10.9706 18.2463 10.9079 18.3227 10.8299 18.381C10.7519 18.4393 10.6609 18.4778 10.5647 18.493C10.4686 18.5083 10.3701 18.4999 10.2779 18.4686C10.1857 18.4373 10.1025 18.384 10.0354 18.3134L6.49344 14.5744C6.39881 14.4746 6.27278 14.4104 6.13644 14.3924L1.02944 13.7244C0.93295 13.7117 0.841002 13.6757 0.761525 13.6195C0.682048 13.5634 0.617427 13.4887 0.573235 13.402C0.529043 13.3153 0.506607 13.2191 0.507862 13.1218C0.509117 13.0245 0.534025 12.9289 0.580438 12.8434L3.04244 8.3194C3.10789 8.19841 3.12978 8.0586 3.10444 7.9234L2.16144 2.8604C2.14353 2.76456 2.14925 2.66581 2.17809 2.57268C2.20693 2.47956 2.25803 2.39486 2.32697 2.32592C2.3959 2.25699 2.4806 2.20589 2.57373 2.17704C2.66685 2.1482 2.76561 2.14249 2.86144 2.1604L7.92444 3.1034C8.05964 3.12873 8.19945 3.10685 8.32044 3.0414L12.8444 0.579396C12.9301 0.53297 13.0257 0.508082 13.1231 0.506882C13.2204 0.505681 13.3167 0.528204 13.4034 0.572504C13.4901 0.616805 13.5648 0.681552 13.6209 0.761154C13.677 0.840756 13.7129 0.93282 13.7254 1.0294L14.3934 6.1354C14.4114 6.27174 14.4757 6.39777 14.5754 6.4924L18.3144 10.0344C18.3851 10.1014 18.4384 10.1846 18.4697 10.2768C18.501 10.3691 18.5093 10.4675 18.4941 10.5637C18.4788 10.6599 18.4404 10.7509 18.3821 10.8289C18.3238 10.9069 18.2474 10.9695 18.1594 11.0114L13.5094 13.2244C13.385 13.2836 13.2847 13.3839 13.2254 13.5084ZM14.0224 15.4354L15.4364 14.0214L19.6794 18.2634L18.2644 19.6784L14.0224 15.4354Z" fill="#FCAF58"/>
</svg>
