<svg width="24" height="24" viewBox="0 0 24 24" fill="none" xmlns="http://www.w3.org/2000/svg">
<path opacity="0.1" fill-rule="evenodd" clip-rule="evenodd" d="M0 12C0 5.37258 5.37258 0 12 0C18.6274 0 24 5.37258 24 12C24 18.6274 18.6274 24 12 24C5.37258 24 0 18.6274 0 12Z" fill="white"/>
<path fill-rule="evenodd" clip-rule="evenodd" d="M17.0024 7.87427C17.5531 8.02541 17.9869 8.47072 18.1341 9.03622C18.4016 10.0611 18.4016 12.1996 18.4016 12.1996C18.4016 12.1996 18.4016 14.338 18.1341 15.363C17.9869 15.9285 17.5531 16.3738 17.0024 16.525C16.0043 16.7996 12.0016 16.7996 12.0016 16.7996C12.0016 16.7996 7.99887 16.7996 7.00069 16.525C6.44993 16.3738 6.01618 15.9285 5.86898 15.363C5.60156 14.338 5.60156 12.1996 5.60156 12.1996C5.60156 12.1996 5.60156 10.0611 5.86898 9.03622C6.01618 8.47072 6.44993 8.02541 7.00069 7.87427C7.99887 7.59961 12.0016 7.59961 12.0016 7.59961C12.0016 7.59961 16.0043 7.59961 17.0024 7.87427ZM10.8016 10.3996V14.3996L14.0016 12.3996L10.8016 10.3996Z" fill="white"/>
</svg>
