<svg width="222" height="42" viewBox="0 0 222 42" fill="none" xmlns="http://www.w3.org/2000/svg">
<path d="M70.4 29H76.6C77.9733 29 79.0333 28.6167 79.78 27.85C80.5333 27.0833 80.91 26.0667 80.91 24.8C80.91 24.0333 80.72 23.35 80.34 22.75C79.96 22.15 79.4133 21.6967 78.7 21.39C79.1733 21.1167 79.5467 20.7267 79.82 20.22C80.0933 19.7133 80.23 19.13 80.23 18.47C80.23 17.8167 80.0733 17.1967 79.76 16.61C79.4467 16.0167 78.98 15.5333 78.36 15.16C77.7467 14.7867 76.98 14.6 76.06 14.6H70.4V29ZM72.52 20.48V16.57H76.03C76.6567 16.57 77.1567 16.75 77.53 17.11C77.9033 17.47 78.09 17.93 78.09 18.49C78.09 19.1167 77.89 19.6067 77.49 19.96C77.0967 20.3067 76.61 20.48 76.03 20.48H72.52ZM72.52 27.01V22.45H76.41C77.13 22.45 77.7033 22.6733 78.13 23.12C78.5567 23.56 78.77 24.1067 78.77 24.76C78.77 25.46 78.5333 26.01 78.06 26.41C77.5867 26.81 76.9933 27.01 76.28 27.01H72.52ZM85.6745 29H88.6845L93.3645 14.6H91.1945L87.1545 26.89L83.1645 14.6H80.9945L85.6745 29ZM94.8727 29H96.9927V18.29L104.083 29H106.203V14.6H104.083V25.3L96.9927 14.6H94.8727V29ZM116.378 29H119.388L124.068 14.6H121.898L117.858 26.89L113.868 14.6H111.698L116.378 29ZM129.174 29.3C130.221 29.3 131.171 29.0367 132.024 28.51C132.878 27.9767 133.514 27.2267 133.934 26.26L131.884 25.61C131.338 26.7567 130.401 27.33 129.074 27.33C128.168 27.33 127.454 27.0567 126.934 26.51C126.414 25.9633 126.111 25.19 126.024 24.19H134.074C134.148 22.8967 133.994 21.78 133.614 20.84C133.234 19.9 132.658 19.1767 131.884 18.67C131.111 18.1567 130.174 17.9 129.074 17.9C128.021 17.9 127.098 18.1367 126.304 18.61C125.511 19.0833 124.891 19.7533 124.444 20.62C124.004 21.4867 123.784 22.51 123.784 23.69C123.784 24.8033 124.008 25.7833 124.454 26.63C124.908 27.47 125.538 28.1267 126.344 28.6C127.158 29.0667 128.101 29.3 129.174 29.3ZM129.154 19.75C130.788 19.75 131.714 20.6867 131.934 22.56H126.074C126.208 21.6467 126.531 20.95 127.044 20.47C127.558 19.99 128.261 19.75 129.154 19.75ZM136.318 29H138.428V23.55C138.428 22.9167 138.528 22.33 138.728 21.79C138.928 21.25 139.281 20.8167 139.788 20.49C140.148 20.2567 140.545 20.12 140.978 20.08C141.411 20.04 141.801 20.0667 142.148 20.16V18.2C141.661 18.1067 141.145 18.11 140.598 18.21C140.058 18.31 139.585 18.51 139.178 18.81C138.778 19.0767 138.445 19.4467 138.178 19.92V18.2H136.318V29ZM144.252 16.43H146.342V14.4H144.252V16.43ZM144.252 29H146.342V18.2H144.252V29ZM150.335 29H152.425V19.88H155.155V18.2H152.425V17.42C152.425 16.4867 152.915 16.02 153.895 16.02H155.155V14.3H153.795C153.529 14.3 153.232 14.3133 152.905 14.34C152.579 14.36 152.252 14.43 151.925 14.55C151.605 14.67 151.305 14.8833 151.025 15.19C150.679 15.57 150.475 16 150.415 16.48C150.362 16.96 150.335 17.4067 150.335 17.82V18.2H148.545V19.88H150.335V29ZM157.255 16.43H159.345V14.4H157.255V16.43ZM157.255 29H159.345V18.2H157.255V29ZM166.973 29.3C168.133 29.3 169.12 29.02 169.933 28.46C170.746 27.9 171.33 27.09 171.683 26.03L169.563 25.53C169.343 26.11 169.023 26.5567 168.603 26.87C168.19 27.1767 167.646 27.33 166.973 27.33C165.986 27.33 165.24 26.9867 164.733 26.3C164.233 25.6133 163.98 24.7133 163.973 23.6C163.98 22.52 164.223 21.63 164.703 20.93C165.19 20.2233 165.946 19.87 166.973 19.87C167.58 19.87 168.116 20.04 168.583 20.38C169.056 20.7133 169.396 21.1833 169.603 21.79L171.683 21.19C171.416 20.1767 170.863 19.3767 170.023 18.79C169.19 18.1967 168.183 17.9 167.003 17.9C165.916 17.9 164.98 18.1433 164.193 18.63C163.413 19.1167 162.813 19.79 162.393 20.65C161.973 21.5033 161.76 22.4867 161.753 23.6C161.76 24.6933 161.966 25.67 162.373 26.53C162.786 27.39 163.38 28.0667 164.153 28.56C164.933 29.0533 165.873 29.3 166.973 29.3ZM176.634 29.3C178.354 29.3 179.65 28.6767 180.524 27.43V29H182.374V22.35C182.374 21.8967 182.354 21.4733 182.314 21.08C182.274 20.6867 182.167 20.3133 181.994 19.96C181.66 19.2467 181.134 18.7267 180.414 18.4C179.7 18.0667 178.86 17.9 177.894 17.9C176.647 17.9 175.647 18.1733 174.894 18.72C174.14 19.2667 173.634 20.0033 173.374 20.93L175.324 21.53C175.51 20.93 175.84 20.4967 176.314 20.23C176.787 19.9633 177.307 19.83 177.874 19.83C178.714 19.83 179.32 20.01 179.694 20.37C180.074 20.7233 180.28 21.2733 180.314 22.02C179.434 22.14 178.574 22.2667 177.734 22.4C176.894 22.5267 176.16 22.68 175.534 22.86C174.7 23.1267 174.067 23.5233 173.634 24.05C173.2 24.5767 172.984 25.2467 172.984 26.06C172.984 26.6467 173.12 27.1867 173.394 27.68C173.674 28.1667 174.084 28.56 174.624 28.86C175.17 29.1533 175.84 29.3 176.634 29.3ZM177.004 27.59C176.337 27.59 175.844 27.4367 175.524 27.13C175.21 26.8233 175.054 26.46 175.054 26.04C175.054 25.6133 175.194 25.2767 175.474 25.03C175.76 24.7833 176.117 24.5867 176.544 24.44C176.997 24.3067 177.53 24.19 178.144 24.09C178.764 23.99 179.48 23.88 180.294 23.76C180.287 24.0133 180.27 24.2967 180.244 24.61C180.217 24.9233 180.16 25.2033 180.074 25.45C179.994 25.8033 179.824 26.1433 179.564 26.47C179.31 26.7967 178.967 27.0667 178.534 27.28C178.107 27.4867 177.597 27.59 177.004 27.59ZM191.15 29V27.23C190.444 27.3367 189.827 27.36 189.3 27.3C188.78 27.2333 188.4 26.9967 188.16 26.59C188.034 26.37 187.964 26.1 187.95 25.78C187.944 25.46 187.94 25.0833 187.94 24.65V19.88H191.15V18.2H187.94V15.2H185.84V18.2H183.77V19.88H185.84V24.75C185.84 25.3367 185.847 25.8633 185.86 26.33C185.88 26.79 186.007 27.2433 186.24 27.69C186.507 28.19 186.897 28.5567 187.41 28.79C187.924 29.0233 188.507 29.15 189.16 29.17C189.814 29.19 190.477 29.1333 191.15 29ZM193.627 16.43H195.717V14.4H193.627V16.43ZM193.627 29H195.717V18.2H193.627V29ZM203.41 29.3C204.484 29.3 205.417 29.06 206.21 28.58C207.004 28.0933 207.617 27.4233 208.05 26.57C208.49 25.71 208.71 24.7167 208.71 23.59C208.71 22.4767 208.494 21.4933 208.06 20.64C207.627 19.78 207.014 19.11 206.22 18.63C205.427 18.1433 204.49 17.9 203.41 17.9C202.35 17.9 201.424 18.14 200.63 18.62C199.837 19.1 199.22 19.7667 198.78 20.62C198.34 21.4733 198.12 22.4633 198.12 23.59C198.12 24.7033 198.337 25.69 198.77 26.55C199.204 27.41 199.814 28.0833 200.6 28.57C201.394 29.0567 202.33 29.3 203.41 29.3ZM203.41 27.33C202.404 27.33 201.64 26.9933 201.12 26.32C200.6 25.64 200.34 24.73 200.34 23.59C200.34 22.49 200.59 21.5967 201.09 20.91C201.59 20.2167 202.364 19.87 203.41 19.87C204.43 19.87 205.197 20.2067 205.71 20.88C206.23 21.5533 206.49 22.4567 206.49 23.59C206.49 24.6967 206.234 25.5967 205.72 26.29C205.214 26.9833 204.444 27.33 203.41 27.33ZM210.898 29H213.018V23.38C213.018 22.5267 213.141 21.8467 213.388 21.34C213.641 20.8267 213.974 20.4567 214.388 20.23C214.801 20.0033 215.258 19.89 215.758 19.89C216.331 19.89 216.798 20.0067 217.158 20.24C217.518 20.4733 217.794 20.78 217.988 21.16C218.181 21.54 218.311 21.9533 218.378 22.4C218.451 22.84 218.488 23.27 218.488 23.69V29H220.608V23C220.608 22.6667 220.578 22.28 220.518 21.84C220.458 21.4 220.344 20.95 220.178 20.49C220.011 20.03 219.768 19.6067 219.448 19.22C219.134 18.8267 218.724 18.51 218.218 18.27C217.711 18.03 217.084 17.91 216.338 17.91C215.558 17.91 214.864 18.05 214.258 18.33C213.658 18.61 213.161 18.9967 212.768 19.49V18.2H210.898V29Z" fill="white"/>
<circle cx="21" cy="21" r="20" fill="#FCAF58" stroke="#FCAF58" stroke-width="2"/>
<path d="M15.1 28.978H26.001V26.481H19.203L23.262 22.884C23.8633 22.356 24.3657 21.8757 24.769 21.443C25.1797 21.003 25.4877 20.53 25.693 20.024C25.8983 19.5107 26.001 18.8763 26.001 18.121C26.001 17.087 25.7663 16.174 25.297 15.382C24.835 14.5827 24.2043 13.9593 23.405 13.512C22.6057 13.0573 21.6963 12.83 20.677 12.83C19.5843 12.83 18.62 13.0463 17.784 13.479C16.948 13.9117 16.2953 14.5203 15.826 15.305C15.3567 16.0897 15.122 17.01 15.122 18.066H17.85C17.8353 17.582 17.9453 17.131 18.18 16.713C18.4147 16.295 18.741 15.9613 19.159 15.712C19.5843 15.4553 20.072 15.327 20.622 15.327C21.4067 15.327 22.0447 15.591 22.536 16.119C23.0347 16.6397 23.284 17.296 23.284 18.088C23.284 18.4767 23.1777 18.88 22.965 19.298C22.7597 19.716 22.3967 20.1597 21.876 20.629L15.1 26.668V28.978Z" fill="#3D348B"/>
</svg>
