<svg width="238" height="42" viewBox="0 0 238 42" fill="none" xmlns="http://www.w3.org/2000/svg">
<path d="M75.62 29.3C76.6133 29.3 77.5267 29.1333 78.36 28.8C79.2 28.4667 79.8733 27.9733 80.38 27.32C80.8867 26.6667 81.14 25.8567 81.14 24.89C81.14 24.19 81.01 23.61 80.75 23.15C80.49 22.6833 80.16 22.31 79.76 22.03C79.3667 21.75 78.9567 21.5333 78.53 21.38C78.11 21.22 77.7333 21.0933 77.4 21L74.74 20.25C74.4 20.1567 74.0567 20.04 73.71 19.9C73.37 19.7533 73.0833 19.5567 72.85 19.31C72.6167 19.0633 72.5 18.74 72.5 18.34C72.5 17.9267 72.63 17.5667 72.89 17.26C73.1567 16.9467 73.51 16.7033 73.95 16.53C74.3967 16.3567 74.8867 16.2767 75.42 16.29C76.2467 16.2967 76.9767 16.5333 77.61 17C78.25 17.46 78.6467 18.0967 78.8 18.91L81.04 18.53C80.7467 17.2033 80.1067 16.1733 79.12 15.44C78.1333 14.7 76.91 14.3233 75.45 14.31C74.4833 14.3033 73.61 14.46 72.83 14.78C72.05 15.1 71.43 15.5667 70.97 16.18C70.5167 16.7933 70.29 17.5467 70.29 18.44C70.29 19.2133 70.4533 19.84 70.78 20.32C71.1067 20.8 71.5133 21.1733 72 21.44C72.4933 21.7067 72.98 21.91 73.46 22.05L77.15 23.14C77.6833 23.3 78.1167 23.5267 78.45 23.82C78.79 24.1067 78.96 24.51 78.96 25.03C78.96 25.51 78.81 25.9233 78.51 26.27C78.2167 26.61 77.8267 26.8733 77.34 27.06C76.8533 27.24 76.32 27.33 75.74 27.33C74.8067 27.33 73.99 27.0867 73.29 26.6C72.59 26.1133 72.13 25.4267 71.91 24.54L69.73 24.87C69.89 25.7833 70.2367 26.5733 70.77 27.24C71.3033 27.9 71.9867 28.41 72.82 28.77C73.6533 29.1233 74.5867 29.3 75.62 29.3ZM89.4511 29V27.23C88.7444 27.3367 88.1278 27.36 87.6011 27.3C87.0811 27.2333 86.7011 26.9967 86.4611 26.59C86.3344 26.37 86.2644 26.1 86.2511 25.78C86.2444 25.46 86.2411 25.0833 86.2411 24.65V19.88H89.4511V18.2H86.2411V15.2H84.1411V18.2H82.0711V19.88H84.1411V24.75C84.1411 25.3367 84.1478 25.8633 84.1611 26.33C84.1811 26.79 84.3078 27.2433 84.5411 27.69C84.8078 28.19 85.1978 28.5567 85.7111 28.79C86.2244 29.0233 86.8078 29.15 87.4611 29.17C88.1144 29.19 88.7778 29.1333 89.4511 29ZM95.9103 29.3C96.9836 29.3 97.917 29.06 98.7103 28.58C99.5036 28.0933 100.117 27.4233 100.55 26.57C100.99 25.71 101.21 24.7167 101.21 23.59C101.21 22.4767 100.994 21.4933 100.56 20.64C100.127 19.78 99.5136 19.11 98.7203 18.63C97.927 18.1433 96.9903 17.9 95.9103 17.9C94.8503 17.9 93.9236 18.14 93.1303 18.62C92.337 19.1 91.7203 19.7667 91.2803 20.62C90.8403 21.4733 90.6203 22.4633 90.6203 23.59C90.6203 24.7033 90.837 25.69 91.2703 26.55C91.7036 27.41 92.3136 28.0833 93.1003 28.57C93.8936 29.0567 94.8303 29.3 95.9103 29.3ZM95.9103 27.33C94.9036 27.33 94.1403 26.9933 93.6203 26.32C93.1003 25.64 92.8403 24.73 92.8403 23.59C92.8403 22.49 93.0903 21.5967 93.5903 20.91C94.0903 20.2167 94.8636 19.87 95.9103 19.87C96.9303 19.87 97.697 20.2067 98.2103 20.88C98.7303 21.5533 98.9903 22.4567 98.9903 23.59C98.9903 24.6967 98.7336 25.5967 98.2203 26.29C97.7136 26.9833 96.9436 27.33 95.9103 27.33ZM103.408 29H105.518V23.55C105.518 22.9167 105.618 22.33 105.818 21.79C106.018 21.25 106.371 20.8167 106.878 20.49C107.238 20.2567 107.634 20.12 108.068 20.08C108.501 20.04 108.891 20.0667 109.238 20.16V18.2C108.751 18.1067 108.234 18.11 107.688 18.21C107.148 18.31 106.674 18.51 106.268 18.81C105.868 19.0767 105.534 19.4467 105.268 19.92V18.2H103.408V29ZM115.737 29.3C116.784 29.3 117.734 29.0367 118.587 28.51C119.44 27.9767 120.077 27.2267 120.497 26.26L118.447 25.61C117.9 26.7567 116.964 27.33 115.637 27.33C114.73 27.33 114.017 27.0567 113.497 26.51C112.977 25.9633 112.674 25.19 112.587 24.19H120.637C120.71 22.8967 120.557 21.78 120.177 20.84C119.797 19.9 119.22 19.1767 118.447 18.67C117.674 18.1567 116.737 17.9 115.637 17.9C114.584 17.9 113.66 18.1367 112.867 18.61C112.074 19.0833 111.454 19.7533 111.007 20.62C110.567 21.4867 110.347 22.51 110.347 23.69C110.347 24.8033 110.57 25.7833 111.017 26.63C111.47 27.47 112.1 28.1267 112.907 28.6C113.72 29.0667 114.664 29.3 115.737 29.3ZM115.717 19.75C117.35 19.75 118.277 20.6867 118.497 22.56H112.637C112.77 21.6467 113.094 20.95 113.607 20.47C114.12 19.99 114.824 19.75 115.717 19.75ZM127.084 29H129.174V14.6H127.084V29ZM132.167 29H134.287V23.38C134.287 22.5267 134.411 21.8467 134.657 21.34C134.911 20.8267 135.244 20.4567 135.657 20.23C136.071 20.0033 136.527 19.89 137.027 19.89C137.601 19.89 138.067 20.0067 138.427 20.24C138.787 20.4733 139.064 20.78 139.257 21.16C139.451 21.54 139.581 21.9533 139.647 22.4C139.721 22.84 139.757 23.27 139.757 23.69V29H141.877V23C141.877 22.6667 141.847 22.28 141.787 21.84C141.727 21.4 141.614 20.95 141.447 20.49C141.281 20.03 141.037 19.6067 140.717 19.22C140.404 18.8267 139.994 18.51 139.487 18.27C138.981 18.03 138.354 17.91 137.607 17.91C136.827 17.91 136.134 18.05 135.527 18.33C134.927 18.61 134.431 18.9967 134.037 19.49V18.2H132.167V29ZM145.472 29H147.562V19.88H150.292V18.2H147.562V17.42C147.562 16.4867 148.052 16.02 149.032 16.02H150.292V14.3H148.932C148.665 14.3 148.369 14.3133 148.042 14.34C147.715 14.36 147.389 14.43 147.062 14.55C146.742 14.67 146.442 14.8833 146.162 15.19C145.815 15.57 145.612 16 145.552 16.48C145.499 16.96 145.472 17.4067 145.472 17.82V18.2H143.682V19.88H145.472V29ZM156.184 29.3C157.257 29.3 158.19 29.06 158.984 28.58C159.777 28.0933 160.39 27.4233 160.824 26.57C161.264 25.71 161.484 24.7167 161.484 23.59C161.484 22.4767 161.267 21.4933 160.834 20.64C160.4 19.78 159.787 19.11 158.994 18.63C158.2 18.1433 157.264 17.9 156.184 17.9C155.124 17.9 154.197 18.14 153.404 18.62C152.61 19.1 151.994 19.7667 151.554 20.62C151.114 21.4733 150.894 22.4633 150.894 23.59C150.894 24.7033 151.11 25.69 151.544 26.55C151.977 27.41 152.587 28.0833 153.374 28.57C154.167 29.0567 155.104 29.3 156.184 29.3ZM156.184 27.33C155.177 27.33 154.414 26.9933 153.894 26.32C153.374 25.64 153.114 24.73 153.114 23.59C153.114 22.49 153.364 21.5967 153.864 20.91C154.364 20.2167 155.137 19.87 156.184 19.87C157.204 19.87 157.97 20.2067 158.484 20.88C159.004 21.5533 159.264 22.4567 159.264 23.59C159.264 24.6967 159.007 25.5967 158.494 26.29C157.987 26.9833 157.217 27.33 156.184 27.33ZM163.681 29H165.791V23.55C165.791 22.9167 165.891 22.33 166.091 21.79C166.291 21.25 166.645 20.8167 167.151 20.49C167.511 20.2567 167.908 20.12 168.341 20.08C168.775 20.04 169.165 20.0667 169.511 20.16V18.2C169.025 18.1067 168.508 18.11 167.961 18.21C167.421 18.31 166.948 18.51 166.541 18.81C166.141 19.0767 165.808 19.4467 165.541 19.92V18.2H163.681V29ZM171.406 29H173.506V22.25C173.506 21.5167 173.706 20.9233 174.106 20.47C174.512 20.0167 175.046 19.79 175.706 19.79C176.372 19.79 176.902 20.0167 177.296 20.47C177.696 20.9167 177.896 21.53 177.896 22.31L177.886 29H179.976L179.986 22.25C179.986 21.4367 180.202 20.8233 180.636 20.41C181.076 19.9967 181.592 19.79 182.186 19.79C182.839 19.79 183.366 20.01 183.766 20.45C184.166 20.89 184.366 21.4967 184.366 22.27L184.356 29H186.446L186.456 21.77C186.456 20.61 186.132 19.68 185.486 18.98C184.846 18.28 183.946 17.93 182.786 17.93C182.079 17.93 181.439 18.0867 180.866 18.4C180.292 18.7067 179.839 19.1333 179.506 19.68C179.219 19.1333 178.809 18.7067 178.276 18.4C177.749 18.0867 177.112 17.93 176.366 17.93C175.719 17.93 175.126 18.06 174.586 18.32C174.052 18.5733 173.612 18.92 173.266 19.36V18.2H171.406V29ZM192.102 29.3C193.822 29.3 195.119 28.6767 195.992 27.43V29H197.842V22.35C197.842 21.8967 197.822 21.4733 197.782 21.08C197.742 20.6867 197.636 20.3133 197.462 19.96C197.129 19.2467 196.602 18.7267 195.882 18.4C195.169 18.0667 194.329 17.9 193.362 17.9C192.116 17.9 191.116 18.1733 190.362 18.72C189.609 19.2667 189.102 20.0033 188.842 20.93L190.792 21.53C190.979 20.93 191.309 20.4967 191.782 20.23C192.256 19.9633 192.776 19.83 193.342 19.83C194.182 19.83 194.789 20.01 195.162 20.37C195.542 20.7233 195.749 21.2733 195.782 22.02C194.902 22.14 194.042 22.2667 193.202 22.4C192.362 22.5267 191.629 22.68 191.002 22.86C190.169 23.1267 189.536 23.5233 189.102 24.05C188.669 24.5767 188.452 25.2467 188.452 26.06C188.452 26.6467 188.589 27.1867 188.862 27.68C189.142 28.1667 189.552 28.56 190.092 28.86C190.639 29.1533 191.309 29.3 192.102 29.3ZM192.472 27.59C191.806 27.59 191.312 27.4367 190.992 27.13C190.679 26.8233 190.522 26.46 190.522 26.04C190.522 25.6133 190.662 25.2767 190.942 25.03C191.229 24.7833 191.586 24.5867 192.012 24.44C192.466 24.3067 192.999 24.19 193.612 24.09C194.232 23.99 194.949 23.88 195.762 23.76C195.756 24.0133 195.739 24.2967 195.712 24.61C195.686 24.9233 195.629 25.2033 195.542 25.45C195.462 25.8033 195.292 26.1433 195.032 26.47C194.779 26.7967 194.436 27.0667 194.002 27.28C193.576 27.4867 193.066 27.59 192.472 27.59ZM206.619 29V27.23C205.912 27.3367 205.296 27.36 204.769 27.3C204.249 27.2333 203.869 26.9967 203.629 26.59C203.502 26.37 203.432 26.1 203.419 25.78C203.412 25.46 203.409 25.0833 203.409 24.65V19.88H206.619V18.2H203.409V15.2H201.309V18.2H199.239V19.88H201.309V24.75C201.309 25.3367 201.316 25.8633 201.329 26.33C201.349 26.79 201.476 27.2433 201.709 27.69C201.976 28.19 202.366 28.5567 202.879 28.79C203.392 29.0233 203.976 29.15 204.629 29.17C205.282 29.19 205.946 29.1333 206.619 29ZM209.096 16.43H211.186V14.4H209.096V16.43ZM209.096 29H211.186V18.2H209.096V29ZM218.879 29.3C219.952 29.3 220.886 29.06 221.679 28.58C222.472 28.0933 223.086 27.4233 223.519 26.57C223.959 25.71 224.179 24.7167 224.179 23.59C224.179 22.4767 223.962 21.4933 223.529 20.64C223.096 19.78 222.482 19.11 221.689 18.63C220.896 18.1433 219.959 17.9 218.879 17.9C217.819 17.9 216.892 18.14 216.099 18.62C215.306 19.1 214.689 19.7667 214.249 20.62C213.809 21.4733 213.589 22.4633 213.589 23.59C213.589 24.7033 213.806 25.69 214.239 26.55C214.672 27.41 215.282 28.0833 216.069 28.57C216.862 29.0567 217.799 29.3 218.879 29.3ZM218.879 27.33C217.872 27.33 217.109 26.9933 216.589 26.32C216.069 25.64 215.809 24.73 215.809 23.59C215.809 22.49 216.059 21.5967 216.559 20.91C217.059 20.2167 217.832 19.87 218.879 19.87C219.899 19.87 220.666 20.2067 221.179 20.88C221.699 21.5533 221.959 22.4567 221.959 23.59C221.959 24.6967 221.702 25.5967 221.189 26.29C220.682 26.9833 219.912 27.33 218.879 27.33ZM226.367 29H228.487V23.38C228.487 22.5267 228.61 21.8467 228.857 21.34C229.11 20.8267 229.443 20.4567 229.857 20.23C230.27 20.0033 230.727 19.89 231.227 19.89C231.8 19.89 232.267 20.0067 232.627 20.24C232.987 20.4733 233.263 20.78 233.457 21.16C233.65 21.54 233.78 21.9533 233.847 22.4C233.92 22.84 233.957 23.27 233.957 23.69V29H236.077V23C236.077 22.6667 236.047 22.28 235.987 21.84C235.927 21.4 235.813 20.95 235.647 20.49C235.48 20.03 235.237 19.6067 234.917 19.22C234.603 18.8267 234.193 18.51 233.687 18.27C233.18 18.03 232.553 17.91 231.807 17.91C231.027 17.91 230.333 18.05 229.727 18.33C229.127 18.61 228.63 18.9967 228.237 19.49V18.2H226.367V29Z" fill="white"/>
<circle cx="21" cy="21" r="21" fill="#FCAF58"/>
<path d="M21.072 29.297C22.062 29.297 22.964 29.0697 23.778 28.615C24.5993 28.153 25.252 27.526 25.736 26.734C26.2273 25.942 26.473 25.0473 26.473 24.05C26.473 23.2507 26.3227 22.5063 26.022 21.817C25.7213 21.1277 25.285 20.5447 24.713 20.068C24.141 19.5913 23.448 19.2687 22.634 19.1L26.209 15.668V13.16H16.496V15.657H23.052L18.476 19.573L19.686 21.663C20.1407 21.4137 20.599 21.289 21.061 21.289C21.8603 21.289 22.513 21.553 23.019 22.081C23.525 22.609 23.778 23.2653 23.778 24.05C23.778 24.8273 23.5177 25.4763 22.997 25.997C22.4837 26.5177 21.8383 26.7817 21.061 26.789C20.4817 26.7963 19.9463 26.6313 19.455 26.294C18.9637 25.9493 18.6263 25.4617 18.443 24.831L15.88 25.524C16.1073 26.2867 16.4777 26.954 16.991 27.526C17.5117 28.0907 18.124 28.527 18.828 28.835C19.532 29.143 20.28 29.297 21.072 29.297Z" fill="#3D348B"/>
</svg>
