<svg width="24" height="24" viewBox="0 0 24 24" fill="none" xmlns="http://www.w3.org/2000/svg">
<path opacity="0.1" fill-rule="evenodd" clip-rule="evenodd" d="M0 12C0 5.37258 5.37258 0 12 0C18.6274 0 24 5.37258 24 12C24 18.6274 18.6274 24 12 24C5.37258 24 0 18.6274 0 12Z" fill="white"/>
<path d="M12.8 18.3504C14.4138 18.1451 15.8889 17.3329 16.9255 16.079C17.962 14.8251 18.4822 13.2236 18.3803 11.6C18.2784 9.97633 17.5621 8.45239 16.377 7.3379C15.1919 6.22342 13.6268 5.60202 12 5.6C10.3712 5.59879 8.80316 6.21867 7.61547 7.33334C6.42778 8.44801 5.70979 9.97359 5.60779 11.5992C5.5058 13.2249 6.02747 14.8282 7.06651 16.0826C8.10556 17.337 9.58379 18.148 11.2 18.3504V13.6H9.6V12H11.2V10.6768C11.2 9.6072 11.312 9.2192 11.52 8.828C11.7249 8.44095 12.0416 8.12455 12.4288 7.92C12.7344 7.756 13.1144 7.6576 13.7784 7.6152C14.0416 7.5984 14.3824 7.6192 14.8008 7.6792V9.1992H14.4C13.6664 9.1992 13.3632 9.2336 13.1824 9.3304C13.0745 9.38589 12.9867 9.47372 12.9312 9.5816C12.8352 9.7624 12.8 9.9416 12.8 10.676V12H14.8L14.4 13.6H12.8V18.3504ZM12 20C7.5816 20 4 16.4184 4 12C4 7.5816 7.5816 4 12 4C16.4184 4 20 7.5816 20 12C20 16.4184 16.4184 20 12 20Z" fill="white"/>
</svg>
