<svg width="24" height="24" viewBox="0 0 24 24" fill="none" xmlns="http://www.w3.org/2000/svg">
<path fill-rule="evenodd" clip-rule="evenodd" d="M5.00846 10.6946C5.00846 10.0759 5.01591 9.4573 5.02339 8.83578L5.02339 8.83577C5.02719 8.52068 5.03099 8.20485 5.03384 7.88791C5.03384 4.48261 7.16556 1.99979 10.1094 1.99979H13.8906C16.8344 1.99979 18.9662 4.48261 18.9662 7.88791C18.9915 9.25199 19 10.6161 19 11.99C19 13.3639 18.9915 14.7476 18.9662 16.1117C18.9662 19.517 16.8344 21.9998 13.8906 21.9998H10.1094C7.16556 21.9998 5.03384 19.517 5.03384 16.1018C5.01692 14.8163 5 13.5013 5 12.1666L5.00846 10.6946ZM13.28 19.64V19.8C13.28 20.4736 12.7168 21 12 21C11.3003 21 10.72 20.4736 10.72 19.8V19.64C10.72 18.984 11.3003 18.44 12 18.44C12.7168 18.44 13.28 18.984 13.28 19.64ZM7.01671 8.44343C7.01136 8.84741 7.00604 9.24953 7.00604 9.65165L7 10.6085C7 11.476 7.01208 12.3307 7.02417 13.1664C7.02417 15.3862 8.54683 17 10.6495 17H13.3505C15.4532 17 16.9758 15.3862 16.9758 13.1727C16.994 12.2861 17 11.3867 17 10.4937C17 9.60062 16.994 8.71397 16.9758 7.82731C16.9758 5.61387 15.4532 4.00003 13.3505 4.00003H10.6495C8.54683 4.00003 7.02417 5.61387 7.02417 7.82731C7.02214 8.03333 7.01942 8.23862 7.01671 8.44343Z" fill="#D6B1FF"/>
</svg>
