<svg width="40" height="40" viewBox="0 0 40 40" fill="none" xmlns="http://www.w3.org/2000/svg">
<rect width="40" height="40" rx="8" fill="#3D348B" fill-opacity="0.1"/>
<path d="M12.0008 14.414L8.75781 11.172L10.1728 9.75696L13.4148 13H28.6568C28.8127 12.9999 28.9664 13.0364 29.1057 13.1063C29.245 13.1763 29.366 13.2778 29.459 13.4029C29.5521 13.5279 29.6147 13.6729 29.6417 13.8264C29.6688 13.9799 29.6595 14.1376 29.6148 14.287L27.2148 22.287C27.1531 22.493 27.0265 22.6737 26.8539 22.8022C26.6813 22.9306 26.4719 23 26.2568 23H14.0008V25H25.0008V27H13.0008C12.7356 27 12.4812 26.8946 12.2937 26.7071C12.1062 26.5195 12.0008 26.2652 12.0008 26V14.414ZM13.5008 31C13.103 31 12.7215 30.8419 12.4402 30.5606C12.1588 30.2793 12.0008 29.8978 12.0008 29.5C12.0008 29.1021 12.1588 28.7206 12.4402 28.4393C12.7215 28.158 13.103 28 13.5008 28C13.8986 28 14.2802 28.158 14.5615 28.4393C14.8428 28.7206 15.0008 29.1021 15.0008 29.5C15.0008 29.8978 14.8428 30.2793 14.5615 30.5606C14.2802 30.8419 13.8986 31 13.5008 31ZM25.5008 31C25.103 31 24.7215 30.8419 24.4402 30.5606C24.1588 30.2793 24.0008 29.8978 24.0008 29.5C24.0008 29.1021 24.1588 28.7206 24.4402 28.4393C24.7215 28.158 25.103 28 25.5008 28C25.8986 28 26.2802 28.158 26.5615 28.4393C26.8428 28.7206 27.0008 29.1021 27.0008 29.5C27.0008 29.8978 26.8428 30.2793 26.5615 30.5606C26.2802 30.8419 25.8986 31 25.5008 31Z" fill="#3D348B"/>
</svg>
