<svg width="146" height="26" viewBox="0 0 146 26" fill="none" xmlns="http://www.w3.org/2000/svg">
<g clip-path="url(#clip0)">
<path fill-rule="evenodd" clip-rule="evenodd" d="M0 15.6884C0.422376 17.7901 1.30368 19.5731 2.6439 21.0374C4.60087 23.1756 7.24641 24.2446 10.5805 24.2446C12.5374 24.2446 14.2861 23.7373 15.8263 22.7226C17.3665 21.7079 18.5714 20.3217 19.4412 18.564C20.3291 20.6297 21.6337 22.2514 23.3551 23.4293C25.0766 24.5889 27.0063 25.1688 29.1445 25.1688C32.5511 25.1688 35.2782 24.0272 37.3257 21.7441C38.77 20.1064 39.7004 18.0878 40.1168 15.6884H35.8069C35.4854 16.6466 34.9951 17.4693 34.3359 18.1563C33.0494 19.4791 31.2827 20.1405 29.0358 20.1405C26.7889 20.1405 24.9769 19.4609 23.5998 18.1019C22.9074 17.4096 22.3892 16.6051 22.0449 15.6884H16.7779C16.4781 16.3362 16.0702 16.9143 15.5544 17.4225C14.3042 18.6184 12.6734 19.2163 10.662 19.2163C8.5601 19.2163 6.90212 18.6093 5.68807 17.3953C5.1818 16.889 4.77957 16.3201 4.4813 15.6884H0ZM16.6299 9.19412C16.3484 8.66966 15.9899 8.19614 15.5544 7.77351C14.3042 6.55945 12.6734 5.95243 10.662 5.95243C8.65069 5.95243 7.01085 6.57759 5.74243 7.82787C5.31841 8.24582 4.96526 8.70125 4.68299 9.19412H0.0643291C0.508471 7.23077 1.36833 5.55225 2.6439 4.15856C4.60087 2.00227 7.24641 0.924125 10.5805 0.924125C12.5556 0.924125 14.3132 1.44961 15.8534 2.50057C17.3936 3.53342 18.5986 4.93771 19.4684 6.71351C20.3563 4.64778 21.6519 3.01699 23.3551 1.82107C25.0584 0.607021 26.9882 0 29.1445 0C32.5692 0 35.2963 1.15968 37.3257 3.47905C38.7062 5.04449 39.6172 6.94953 40.0587 9.19412H35.696C35.3768 8.37014 34.9234 7.65202 34.3359 7.03966C33.0312 5.69878 31.2645 5.0283 29.0358 5.0283C26.8251 5.0283 25.0222 5.73501 23.627 7.14839C23.0258 7.74957 22.5541 8.43146 22.212 9.19412H16.6299Z" fill="url(#paint0_linear)"/>
</g>
<path d="M53.4299 20.8845C54.4299 20.8845 55.3366 20.7178 56.1499 20.3845C56.9633 20.0511 57.6099 19.5645 58.0899 18.9245C58.5766 18.2778 58.8199 17.4911 58.8199 16.5645C58.8199 15.8711 58.6933 15.2978 58.4399 14.8445C58.1866 14.3845 57.8666 14.0178 57.4799 13.7445C57.0933 13.4645 56.6933 13.2478 56.2799 13.0945C55.8733 12.9411 55.5133 12.8211 55.1999 12.7345L52.4599 11.9445C52.1066 11.8445 51.7433 11.7178 51.3699 11.5645C50.9966 11.4045 50.6833 11.1911 50.4299 10.9245C50.1833 10.6511 50.0599 10.2945 50.0599 9.85447C50.0599 9.40781 50.1966 9.01447 50.4699 8.67447C50.7499 8.32781 51.1266 8.05781 51.5999 7.86447C52.0799 7.67114 52.6133 7.5778 53.1999 7.58447C54.1133 7.59114 54.9099 7.85114 55.5899 8.36447C56.2766 8.87114 56.6933 9.56114 56.8399 10.4345L58.7299 10.1045C58.4633 8.79114 57.8399 7.76447 56.8599 7.02447C55.8866 6.27781 54.6733 5.90114 53.2199 5.89447C52.2666 5.88781 51.4066 6.04447 50.6399 6.36447C49.8799 6.68447 49.2799 7.14781 48.8399 7.75447C48.3999 8.35447 48.1799 9.08114 48.1799 9.93447C48.1799 10.6411 48.3266 11.2278 48.6199 11.6945C48.9199 12.1611 49.3066 12.5345 49.7799 12.8145C50.2599 13.0878 50.7666 13.3045 51.2999 13.4645L54.9699 14.5545C55.4833 14.7078 55.9466 14.9411 56.3599 15.2545C56.7733 15.5611 56.9799 16.0311 56.9799 16.6645C56.9799 17.1845 56.8233 17.6345 56.5099 18.0145C56.2033 18.3945 55.7899 18.6878 55.2699 18.8945C54.7499 19.0945 54.1666 19.1945 53.5199 19.1945C52.5133 19.1945 51.6433 18.9411 50.9099 18.4345C50.1766 17.9211 49.6933 17.2111 49.4599 16.3045L47.6199 16.5945C47.7799 17.4745 48.1233 18.2378 48.6499 18.8845C49.1833 19.5245 49.8566 20.0178 50.6699 20.3645C51.4899 20.7111 52.4099 20.8845 53.4299 20.8845ZM66.9476 20.5845V19.0545C66.2076 19.1678 65.5742 19.1878 65.0476 19.1145C64.5276 19.0411 64.1476 18.7911 63.9076 18.3645C63.7809 18.1378 63.7109 17.8711 63.6976 17.5645C63.6909 17.2511 63.6876 16.8711 63.6876 16.4245V11.2545H66.9476V9.78447H63.6876V6.78447H61.9076V9.78447H59.7176V11.2545H61.9076V16.5045C61.9076 17.0645 61.9142 17.5645 61.9276 18.0045C61.9476 18.4378 62.0642 18.8645 62.2776 19.2845C62.5309 19.7711 62.9009 20.1311 63.3876 20.3645C63.8742 20.5911 64.4276 20.7145 65.0476 20.7345C65.6742 20.7611 66.3076 20.7111 66.9476 20.5845ZM73.291 20.8845C74.3643 20.8845 75.2877 20.6445 76.061 20.1645C76.841 19.6845 77.441 19.0145 77.861 18.1545C78.2877 17.2945 78.501 16.3011 78.501 15.1745C78.501 14.0611 78.291 13.0778 77.871 12.2245C77.4577 11.3645 76.861 10.6945 76.081 10.2145C75.301 9.72781 74.371 9.48447 73.291 9.48447C72.2377 9.48447 71.321 9.72447 70.541 10.2045C69.761 10.6778 69.1577 11.3411 68.731 12.1945C68.3043 13.0478 68.091 14.0411 68.091 15.1745C68.091 16.2878 68.2977 17.2745 68.711 18.1345C69.131 18.9945 69.731 19.6678 70.511 20.1545C71.291 20.6411 72.2177 20.8845 73.291 20.8845ZM73.291 19.1945C72.2043 19.1945 71.381 18.8311 70.821 18.1045C70.261 17.3711 69.981 16.3945 69.981 15.1745C69.981 13.9945 70.251 13.0345 70.791 12.2945C71.331 11.5478 72.1643 11.1745 73.291 11.1745C74.3977 11.1745 75.2277 11.5378 75.781 12.2645C76.3343 12.9911 76.611 13.9611 76.611 15.1745C76.611 16.3611 76.3343 17.3278 75.781 18.0745C75.2343 18.8211 74.4043 19.1945 73.291 19.1945ZM80.7027 20.5845H82.4927V15.1645C82.4927 14.5245 82.5794 13.9078 82.7527 13.3145C82.9261 12.7211 83.2761 12.2378 83.8027 11.8645C84.1761 11.5911 84.5861 11.4311 85.0327 11.3845C85.4861 11.3378 85.8994 11.3611 86.2727 11.4545V9.78447C85.7927 9.67781 85.2661 9.67781 84.6927 9.78447C84.1194 9.89114 83.6261 10.1111 83.2127 10.4445C82.8527 10.6978 82.5461 11.0478 82.2927 11.4945V9.78447H80.7027V20.5845ZM92.6484 20.8845C93.695 20.8845 94.6384 20.6245 95.4784 20.1045C96.3184 19.5778 96.9517 18.8378 97.3784 17.8845L95.6684 17.2945C95.0484 18.5611 94.015 19.1945 92.5684 19.1945C91.575 19.1945 90.795 18.8911 90.2284 18.2845C89.6684 17.6711 89.3517 16.8045 89.2784 15.6845H97.5584C97.6117 14.4045 97.445 13.3011 97.0584 12.3745C96.6784 11.4478 96.105 10.7345 95.3384 10.2345C94.5784 9.73447 93.655 9.48447 92.5684 9.48447C91.5217 9.48447 90.6084 9.72114 89.8284 10.1945C89.0484 10.6611 88.4417 11.3278 88.0084 12.1945C87.5817 13.0545 87.3684 14.0745 87.3684 15.2545C87.3684 16.3811 87.585 17.3678 88.0184 18.2145C88.4584 19.0545 89.075 19.7111 89.8684 20.1845C90.6617 20.6511 91.5884 20.8845 92.6484 20.8845ZM92.6284 11.0845C94.4617 11.0845 95.4884 12.1411 95.7084 14.2545H89.3084C89.435 13.2278 89.7784 12.4445 90.3384 11.9045C90.8984 11.3578 91.6617 11.0845 92.6284 11.0845ZM100.815 20.5845H102.595V11.2545H105.435V9.78447H102.595V8.91447C102.595 7.88114 103.118 7.36447 104.165 7.36447H105.435V5.88447H104.065C103.658 5.88447 103.221 5.92447 102.755 6.00447C102.288 6.07781 101.868 6.31781 101.495 6.72447C101.175 7.07114 100.981 7.4678 100.915 7.91447C100.848 8.35447 100.815 8.78114 100.815 9.19447V9.78447H98.9848V11.2545H100.815V20.5845ZM107.031 20.5845H108.821V15.1645C108.821 14.5245 108.908 13.9078 109.081 13.3145C109.254 12.7211 109.604 12.2378 110.131 11.8645C110.504 11.5911 110.914 11.4311 111.361 11.3845C111.814 11.3378 112.228 11.3611 112.601 11.4545V9.78447C112.121 9.67781 111.594 9.67781 111.021 9.78447C110.448 9.89114 109.954 10.1111 109.541 10.4445C109.181 10.6978 108.874 11.0478 108.621 11.4945V9.78447H107.031V20.5845ZM118.896 20.8845C119.97 20.8845 120.893 20.6445 121.666 20.1645C122.446 19.6845 123.046 19.0145 123.466 18.1545C123.893 17.2945 124.106 16.3011 124.106 15.1745C124.106 14.0611 123.896 13.0778 123.476 12.2245C123.063 11.3645 122.466 10.6945 121.686 10.2145C120.906 9.72781 119.976 9.48447 118.896 9.48447C117.843 9.48447 116.926 9.72447 116.146 10.2045C115.366 10.6778 114.763 11.3411 114.336 12.1945C113.91 13.0478 113.696 14.0411 113.696 15.1745C113.696 16.2878 113.903 17.2745 114.316 18.1345C114.736 18.9945 115.336 19.6678 116.116 20.1545C116.896 20.6411 117.823 20.8845 118.896 20.8845ZM118.896 19.1945C117.81 19.1945 116.986 18.8311 116.426 18.1045C115.866 17.3711 115.586 16.3945 115.586 15.1745C115.586 13.9945 115.856 13.0345 116.396 12.2945C116.936 11.5478 117.77 11.1745 118.896 11.1745C120.003 11.1745 120.833 11.5378 121.386 12.2645C121.94 12.9911 122.216 13.9611 122.216 15.1745C122.216 16.3611 121.94 17.3278 121.386 18.0745C120.84 18.8211 120.01 19.1945 118.896 19.1945ZM126.298 20.5845H128.098V14.8945C128.098 13.6411 128.368 12.7111 128.908 12.1045C129.455 11.4978 130.175 11.1945 131.068 11.1945C131.828 11.1945 132.422 11.3845 132.848 11.7645C133.275 12.1445 133.572 12.6378 133.738 13.2445C133.912 13.8511 133.998 14.4945 133.998 15.1745V20.5845H135.798V14.6145C135.798 14.1011 135.735 13.5511 135.608 12.9645C135.488 12.3711 135.268 11.8145 134.948 11.2945C134.635 10.7678 134.198 10.3378 133.638 10.0045C133.085 9.67114 132.372 9.50447 131.498 9.50447C129.925 9.50447 128.725 10.0611 127.898 11.1745V9.78447H126.298V20.5845ZM144.428 20.5845V19.0545C143.688 19.1678 143.055 19.1878 142.528 19.1145C142.008 19.0411 141.628 18.7911 141.388 18.3645C141.261 18.1378 141.191 17.8711 141.178 17.5645C141.171 17.2511 141.168 16.8711 141.168 16.4245V11.2545H144.428V9.78447H141.168V6.78447H139.388V9.78447H137.198V11.2545H139.388V16.5045C139.388 17.0645 139.395 17.5645 139.408 18.0045C139.428 18.4378 139.545 18.8645 139.758 19.2845C140.011 19.7711 140.381 20.1311 140.868 20.3645C141.355 20.5911 141.908 20.7145 142.528 20.7345C143.155 20.7611 143.788 20.7111 144.428 20.5845Z" fill="#3D348B"/>
<defs>
<linearGradient id="paint0_linear" x1="0" y1="12.5844" x2="47.779" y2="12.5246" gradientUnits="userSpaceOnUse">
<stop offset="0.282575" stop-color="#100A4A"/>
<stop offset="0.837484" stop-color="#3D348B"/>
</linearGradient>
<clipPath id="clip0">
<rect width="40.1168" height="25.1688" fill="white"/>
</clipPath>
</defs>
</svg>
